<?xml version="1.0" encoding="utf-8" ?>
<svg xmlns="http://www.w3.org/2000/svg" xmlns:ev="http://www.w3.org/2001/xml-events" xmlns:xlink="http://www.w3.org/1999/xlink" baseProfile="full" height="272px" version="1.1" viewBox="0 0 264 272" width="264px">
  <defs/>
  <g id="xffffff_r255_g255_b255">
    <path d="M 60,122 60,118 62,118 62,112 64,112 64,108 66,108 66,104 68,104 68,100 70,100 70,96 74,96 74,98 76,98 76,100 78,100 78,102 80,102 80,108 82,108 82,116 84,116 84,120 86,120 86,124 90,124 90,128 92,128 92,130 98,130 98,126 96,126 96,120 94,120 94,114 92,114 92,108 90,108 90,101 90,98 88,98 88,95 88,90 86,90 86,86 92,86 92,84 110,84 110,86 116,86 116,87 116,88 118,88 118,90 122,90 122,92 124,92 124,94 126,94 126,97 126,98 128,98 128,99 128,108 130,108 130,114 132,114 132,115 132,120 130,120 130,122 122,122 122,124 116,124 116,126 114,126 114,128 112,128 112,130 110,130 110,132 112,132 112,134 114,134 114,136 118,136 118,138 116,138 116,140 114,140 114,142 116,142 116,144 114,144 114,146 122,146 122,148 120,148 120,154 122,154 122,156 126,156 126,158 128,158 128,156 132,156 132,170 130,170 130,178 128,178 128,188 128,192 126,192 126,195 126,198 124,198 124,199 124,202 122,202 122,204 122,208 120,208 120,212 118,212 118,216 116,216 116,220 114,220 114,224 112,224 112,226 110,226 110,228 108,228 108,232 104,232 104,234 102,234 102,236 98,236 98,238 94,238 94,240 87,240 84,240 84,242 88,242 94,242 94,240 96,240 96,242 98,242 98,240 102,240 102,238 104,238 104,236 108,236 108,232 110,232 110,230 114,230 114,226 116,226 116,224 118,224 118,220 122,220 122,214 124,214 124,208 126,208 126,204 128,204 128,196 130,196 130,194 132,194 132,182 134,182 134,180 136,180 136,178 134,178 134,176 136,176 136,174 134,174 134,170 136,170 136,158 134,158 134,156 136,156 136,154 142,154 142,152 146,152 146,150 150,150 150,148 152,148 152,146 156,146 156,144 158,144 158,140 160,140 160,136 156,136 156,138 154,138 154,140 152,140 152,142 150,142 150,144 148,144 148,146 146,146 146,148 142,148 142,150 138,150 138,152 132,152 132,154 124,154 124,150 126,150 126,148 130,148 130,146 136,146 136,144 140,144 140,142 142,142 142,140 132,140 132,142 124,142 124,144 122,144 122,142 120,142 120,140 122,140 122,138 126,138 126,136 138,136 138,132 114,132 114,130 116,130 116,128 120,128 120,126 128,126 128,124 142,124 142,100 142,98 144,98 144,101 144,102 146,102 146,105 146,106 148,106 148,108 148,118 150,118 150,120 154,120 154,118 166,118 166,116 172,116 172,114 178,114 178,112 184,112 184,110 188,110 188,108 194,108 194,106 196,106 196,105 196,104 202,104 202,102 206,102 206,98 212,98 212,96 210,96 210,92 206,92 206,94 204,94 204,96 202,96 202,98 200,98 200,96 190,96 190,92 194,92 194,86 196,86 196,88 198,88 198,92 204,92 204,90 206,90 206,86 212,86 212,88 214,88 214,90 218,90 218,88 220,88 220,86 222,86 222,80 224,80 224,82 226,82 226,86 228,86 228,90 230,90 230,92 234,92 234,88 238,88 238,92 242,92 242,88 240,88 240,76 234,76 234,82 232,82 232,86 230,86 230,82 228,82 228,80 226,80 226,76 224,76 224,70 226,70 226,64 228,64 228,56 226,56 226,58 224,58 224,62 222,62 222,70 220,70 220,74 218,74 218,82 216,82 216,86 214,86 214,84 212,84 212,80 206,80 206,82 204,82 204,86 200,86 200,82 196,82 196,80 194,80 194,82 192,82 192,84 190,84 190,86 188,86 188,90 186,90 186,92 184,92 184,96 182,96 182,100 180,100 180,104 178,104 178,110 174,110 174,112 170,112 170,114 160,114 160,116 154,116 154,114 152,114 152,106 150,106 150,98 148,98 148,96 140,96 140,98 138,98 138,112 136,112 136,110 134,110 134,108 136,108 136,106 134,106 134,100 132,100 132,96 130,96 130,94 128,94 128,90 126,90 126,88 124,88 124,86 122,86 122,84 118,84 118,82 116,82 116,80 114,80 114,78 110,78 110,76 106,76 106,74 92,74 92,72 88,72 88,70 82,70 82,68 78,68 78,66 74,66 74,64 64,64 64,66 58,66 58,68 52,68 52,70 46,70 46,82 45,82 44,82 44,80 43,80 36,80 36,82 32,82 32,86 30,86 30,90 28,90 28,92 26,92 26,94 28,94 28,96 26,96 26,98 24,98 24,104 22,104 22,106 20,106 20,108 18,108 18,114 14,114 14,124 12,124 12,130 10,130 10,134 8,134 8,138 6,138 6,146 10,146 10,148 4,148 4,152 2,152 2,156 2,174 0,174 0,156 0,54 0,0 40,0 189,0 264,0 264,42 262,42 262,36 258,36 258,32 256,32 256,30 252,30 252,26 250,26 250,24 248,24 248,22 246,22 246,20 244,20 244,18 242,18 242,14 240,14 240,12 236,12 236,10 234,10 234,8 230,8 230,6 228,6 228,10 232,10 232,12 234,12 234,16 232,16 232,20 228,20 228,22 226,22 226,20 220,20 220,22 218,22 218,20 214,20 214,24 216,24 216,28 218,28 218,36 220,36 220,46 224,46 224,40 226,40 226,44 227,44 228,44 228,54 232,54 232,52 234,52 234,58 238,58 238,56 240,56 240,52 246,52 246,44 244,44 244,38 242,38 242,36 244,36 244,32 246,32 246,36 248,36 248,42 250,42 250,46 252,46 252,48 254,48 254,46 256,46 256,44 254,44 254,40 252,40 252,36 256,36 256,40 258,40 258,44 260,44 260,46 262,46 262,44 264,44 264,114 264,160 262,160 262,148 260,148 260,140 258,140 258,134 256,134 256,126 254,126 254,124 252,124 252,118 250,118 250,110 248,110 248,106 246,106 246,100 244,100 244,96 240,96 240,98 242,98 242,100 240,100 240,102 242,102 242,104 244,104 244,112 246,112 246,122 248,122 248,124 250,124 250,130 252,130 252,136 254,136 254,142 256,142 256,154 258,154 258,158 260,158 260,162 258,162 258,166 260,166 260,172 262,172 262,178 258,178 258,174 256,174 256,170 254,170 254,168 252,168 252,166 250,166 250,162 248,162 248,160 246,160 246,156 244,156 244,152 238,152 238,176 236,176 236,178 238,178 238,180 236,180 236,182 234,182 234,180 232,180 232,178 230,178 230,176 228,176 228,170 226,170 226,166 224,166 224,160 222,160 222,156 220,156 220,152 218,152 218,150 214,150 214,154 212,154 212,162 210,162 210,170 208,170 208,172 206,172 206,176 202,176 202,172 200,172 200,162 198,162 198,156 196,156 196,146 190,146 190,150 188,150 188,152 186,152 186,154 184,154 184,158 182,158 182,162 180,162 180,166 178,166 178,170 176,170 176,172 174,172 174,164 176,164 176,148 178,148 178,140 180,140 180,132 182,132 182,126 190,126 190,124 192,124 192,122 194,122 194,120 200,120 200,118 202,118 202,116 204,116 204,114 208,114 208,112 210,112 210,110 214,110 214,106 216,106 216,104 218,104 218,100 212,100 212,104 210,104 210,108 206,108 206,110 202,110 202,112 200,112 200,114 198,114 198,116 194,116 194,118 190,118 190,120 188,120 188,122 184,122 184,124 178,124 178,126 170,126 170,128 164,128 164,130 160,130 160,132 158,132 158,134 162,134 162,132 168,132 168,130 176,130 176,138 174,138 174,146 172,146 172,154 170,154 170,180 174,180 174,178 176,178 176,176 178,176 178,174 180,174 180,170 182,170 182,168 184,168 184,164 186,164 186,160 188,160 188,156 190,156 190,154 194,154 194,156 192,156 192,160 194,160 194,170 196,170 196,176 198,176 198,194 194,194 194,198 190,198 190,202 188,202 188,204 184,204 184,206 182,206 182,208 180,208 180,210 176,210 176,214 172,214 172,218 170,218 170,226 172,226 172,228 178,228 178,226 182,226 182,224 186,224 186,222 188,222 188,220 192,220 192,218 194,218 194,216 198,216 198,214 200,214 200,212 204,212 204,210 206,210 206,208 208,208 208,206 210,206 210,204 212,204 212,208 214,208 214,210 216,210 216,212 218,212 218,214 222,214 222,212 220,212 220,210 216,210 216,206 218,206 218,204 220,204 220,206 224,206 224,180 226,180 226,182 228,182 228,184 230,184 230,202 228,202 228,204 230,204 230,206 232,206 232,205 232,194 234,194 234,192 232,192 232,190 238,190 238,186 240,186 240,176 242,176 242,160 244,160 244,164 246,164 246,166 248,166 248,168 250,168 250,174 252,174 252,176 254,176 254,178 256,178 256,182 264,182 264,212 264,272 216,272 194,272 194,250 192,250 192,248 190,248 190,246 188,246 188,244 186,244 186,242 182,242 182,240 178,240 178,238 172,238 172,236 158,236 158,240 160,240 160,242 162,242 162,244 154,244 154,246 150,246 150,250 148,250 148,258 150,258 150,260 166,260 166,250 168,250 168,252 170,252 170,254 172,254 172,256 174,256 174,258 176,258 176,260 178,260 178,264 182,264 182,266 184,266 184,268 188,268 188,270 190,270 190,272 0,272 0,192 2,192 2,202 4,202 4,208 6,208 6,212 8,212 8,218 10,218 10,220 12,220 12,222 14,222 14,224 16,224 16,226 20,226 20,228 24,228 24,230 32,230 32,232 36,232 36,234 40,234 40,232 50,232 50,234 56,234 56,236 66,236 66,238 70,238 70,236 72,236 72,230 74,230 74,224 76,224 76,234 74,234 74,242 80,242 80,244 82,244 82,240 80,240 80,230 78,230 78,228 80,228 80,218 82,218 82,200 80,200 80,198 82,198 82,192 84,192 84,190 86,190 86,188 90,188 90,184 88,184 88,182 82,182 82,184 80,184 80,182 74,182 74,180 72,180 72,178 66,178 66,176 64,176 64,182 66,182 66,184 68,184 68,186 74,186 74,218 72,218 72,222 70,222 70,228 68,228 68,232 64,232 64,230 62,230 62,228 60,228 60,226 58,226 58,224 56,224 56,220 54,220 54,214 52,214 52,202 50,202 50,194 48,194 48,158 50,158 50,150 52,150 52,140 54,140 54,134 56,134 56,128 58,128 58,122 z M 196,72 200,72 200,74 202,74 202,76 204,76 204,78 210,78 210,76 208,76 208,74 206,74 206,72 204,72 204,70 202,70 202,68 203,68 206,68 206,66 208,66 208,64 210,64 210,62 210,58 212,58 212,50 210,50 210,42 206,42 206,44 204,44 204,48 202,48 202,50 200,50 200,52 198,52 198,54 192,54 192,56 188,56 188,50 186,50 186,48 188,48 188,46 190,46 190,40 186,40 186,42 184,42 184,44 182,44 182,46 178,46 178,48 174,48 174,50 172,50 172,52 168,52 168,54 160,54 160,46 162,46 162,42 166,42 166,40 168,40 168,38 170,38 170,36 172,36 172,34 174,34 174,32 182,32 182,30 188,30 188,26 190,26 190,30 194,30 194,32 204,32 204,30 208,30 208,28 210,28 210,26 212,26 212,18 210,18 210,16 206,16 206,14 202,14 202,12 204,12 204,10 206,10 206,8 208,8 208,6 210,6 210,4 206,4 206,6 204,6 204,8 202,8 200,8 200,12 198,12 198,10 196,10 196,8 182,8 182,10 180,10 180,12 178,12 178,18 176,18 176,22 178,22 178,24 180,24 180,28 178,28 178,30 172,30 172,32 168,32 168,34 166,34 166,36 164,36 164,38 162,38 162,40 160,40 160,42 156,42 156,46 154,46 154,54 156,54 156,56 162,56 162,58 164,58 164,56 172,56 172,54 176,54 176,52 184,52 184,58 186,58 186,60 194,60 194,58 198,58 198,56 200,56 200,54 202,54 202,52 204,52 204,50 206,50 206,48 208,48 208,56 206,56 206,62 204,62 204,64 200,64 200,66 196,66 z M 146,222 144,222 144,220 132,220 132,224 130,224 130,226 128,226 128,228 126,228 126,232 124,232 124,234 122,234 122,238 120,238 120,240 118,240 118,244 120,244 120,248 133,248 148,248 148,246 150,246 150,240 148,240 148,234 158,234 158,232 162,232 162,230 164,230 164,228 162,228 162,224 160,224 160,220 158,220 158,218 156,218 156,216 152,216 150,216 150,218 149,218 148,218 148,220 147,220 146,220 z M 200,138 200,140 204,140 204,138 206,138 206,136 208,136 208,128 206,128 206,126 200,126 200,128 198,128 198,130 196,130 196,136 198,136 198,138 z M 228,140 228,142 226,142 226,152 234,152 234,150 236,150 236,146 238,146 238,140 234,140 234,138 230,138 230,140 z M 248,214 248,216 250,216 250,218 254,218 254,220 256,220 256,228 254,228 254,230 252,230 252,228 248,228 248,230 250,230 250,232 260,232 260,230 262,230 262,224 261,224 260,224 260,222 259,222 258,222 258,220 256,220 256,216 252,216 252,214 250,214 250,212 249,212 246,212 246,210 245,210 242,210 242,212 244,212 244,214 z M 236,222 236,224 240,224 240,222 238,222 238,220 234,220 234,222 z M 226,216 226,214 224,214 224,216 226,216 226,218 230,218 230,216 z M 234,110 230,110 230,108 228,108 228,110 227,110 222,110 222,120 225,120 226,120 226,122 230,122 230,120 234,120 234,115 z M 238,208 238,206 236,206 236,204 234,204 234,206 232,206 232,208 236,208 236,209 236,210 238,210 239,210 240,210 240,209 240,208 z M 244,225 244,224 240,224 240,226 244,226 244,228 246,228 246,226 244,226 z M 98,148 98,150 94,150 94,154 92,154 92,158 90,158 90,164 88,164 88,166 90,166 90,170 92,170 92,172 94,172 94,174 102,174 102,172 104,172 104,168 106,168 106,166 108,166 108,158 108,152 104,152 104,150 102,150 102,148 z M 213,4 224,4 224,6 226,6 228,6 228,2 223,2 210,2 210,4 z M 230,218 230,220 234,220 234,218 z" fill="#ffffff" fill-opacity="1.0" id="xffffff_r255_g255_b255_shape1"/>
    <path d="M 14,130 16,130 16,126 18,126 18,118 20,118 20,114 22,114 22,108 24,108 24,106 26,106 26,104 28,104 28,98 30,98 30,96 32,96 32,92 34,92 34,90 36,90 36,86 38,86 38,84 40,84 40,82 44,82 44,84 46,84 46,86 52,86 52,88 58,88 58,90 64,90 64,92 68,92 68,98 64,98 64,104 62,104 62,106 60,106 60,112 58,112 58,118 56,118 56,120 54,120 54,126 52,126 52,132 50,132 50,140 48,140 48,148 46,148 46,156 44,156 44,158 46,158 46,160 44,160 44,172 42,172 42,176 44,176 44,196 46,196 46,204 48,204 48,214 50,214 50,220 52,220 52,226 54,226 54,228 56,228 56,230 58,230 58,232 50,232 50,230 38,230 38,228 34,228 34,226 24,226 24,224 22,224 22,222 20,222 20,224 16,224 16,222 14,222 14,220 12,220 12,216 10,216 10,212 8,212 8,206 6,206 6,198 4,198 4,190 2,190 2,184 4,184 4,166 6,166 6,154 8,154 8,152 14,152 14,154 26,154 26,152 28,152 28,150 26,150 26,148 18,148 18,146 14,146 14,144 12,144 12,142 10,142 10,140 12,140 12,138 14,138 z" fill="#ffffff" fill-opacity="1.0" id="xffffff_r255_g255_b255_shape2"/>
    <path d="M 184,218 184,220 182,220 182,222 178,222 178,224 172,224 172,222 174,222 174,220 176,220 176,218 178,218 178,214 184,214 184,210 186,210 186,208 190,208 190,204 193,204 194,204 194,202 196,202 196,200 200,200 200,193 200,182 204,182 204,188 206,188 206,198 208,198 208,186 206,186 206,178 208,178 208,176 210,176 210,174 212,174 212,170 214,170 214,164 216,164 216,160 218,160 218,162 220,162 220,168 222,168 222,200 220,200 220,202 214,202 214,204 212,204 212,197 212,194 210,194 210,196 210,200 208,200 208,202 206,202 206,204 204,204 204,206 200,206 200,210 194,210 194,214 190,214 190,216 188,216 188,218 z" fill="#ffffff" fill-opacity="1.0" id="xffffff_r255_g255_b255_shape3"/>
    <path d="M 110,78 110,80 102,80 102,78 98,78 98,80 88,80 88,82 84,82 84,84 82,84 82,86 80,86 80,84 76,84 76,86 80,86 80,90 82,90 82,92 76,92 76,90 68,90 68,88 62,88 62,86 54,86 54,84 50,84 50,78 54,78 56,78 56,79 56,80 62,80 62,82 70,82 70,80 64,80 64,78 58,78 58,76 56,76 52,76 52,72 56,72 56,70 62,70 62,68 74,68 74,70 80,70 82,70 82,72 84,72 84,74 87,74 92,74 92,76 97,76 104,76 104,78 z M 74,82 74,84 76,84 76,82 z" fill="#ffffff" fill-opacity="1.0" id="xffffff_r255_g255_b255_shape4"/>
    <path d="M 124,244 122,244 122,242 124,242 124,238 126,238 126,236 128,236 128,232 130,232 130,228 132,228 132,226 136,226 136,224 140,224 140,226 142,226 142,228 142,232 144,232 144,239 144,246 133,246 125,246 124,246 z" fill="#ffffff" fill-opacity="1.0" id="xffffff_r255_g255_b255_shape5"/>
    <path d="M 172,248 170,248 170,246 168,246 168,242 166,242 166,238 170,238 170,240 176,240 176,242 180,242 180,244 184,244 184,246 186,246 186,248 188,248 188,260 190,260 190,266 186,266 186,264 184,264 184,262 182,262 182,260 181,260 178,260 178,256 176,256 176,254 174,254 174,252 172,252 z" fill="#ffffff" fill-opacity="1.0" id="xffffff_r255_g255_b255_shape6"/>
    <path d="M 186,10 194,10 194,12 198,12 198,14 194,14 194,16 192,16 192,18 190,18 190,22 188,22 188,26 184,26 184,22 181,22 180,22 180,20 181,20 182,20 182,15 182,14 184,14 184,12 186,12 z M 184,20 188,20 188,16 186,16 186,18 185,18 184,18 z" fill="#ffffff" fill-opacity="1.0" id="xffffff_r255_g255_b255_shape7"/>
    <path d="M 192,22 194,22 194,20 200,20 200,18 198,18 198,16 204,16 204,18 206,18 206,20 208,20 208,24 206,24 206,26 204,26 204,24 198,24 198,22 196,22 196,26 204,26 204,28 200,28 200,29 200,30 194,30 194,26 192,26 z" fill="#ffffff" fill-opacity="1.0" id="xffffff_r255_g255_b255_shape8"/>
    <path d="M 162,258 150,258 150,256 152,256 152,252 154,252 154,248 156,248 156,246 158,246 158,248 161,248 162,248 z" fill="#ffffff" fill-opacity="1.0" id="xffffff_r255_g255_b255_shape9"/>
    <path d="M 146,232 146,230 147,230 148,230 148,228 150,228 150,222 152,222 152,220 154,220 154,222 155,222 156,222 156,228 158,228 158,230 156,230 156,232 147,232 z" fill="#ffffff" fill-opacity="1.0" id="xffffff_r255_g255_b255_shape10"/>
    <path d="M 188,98 188,96 190,96 190,104 188,104 188,106 184,106 184,102 186,102 186,98 z" fill="#ffffff" fill-opacity="1.0" id="xffffff_r255_g255_b255_shape11"/>
    <path d="M 236,32 234,32 234,26 236,26 z" fill="#ffffff" fill-opacity="1.0" id="xffffff_r255_g255_b255_shape12"/>
    <path d="M 238,44 240,44 240,45 240,50 238,50 238,48 z" fill="#ffffff" fill-opacity="1.0" id="xffffff_r255_g255_b255_shape13"/>
    <path d="M 92,166 94,166 94,168 96,168 96,170 93,170 92,170 z" fill="#ffffff" fill-opacity="1.0" id="xffffff_r255_g255_b255_shape14"/>
    <path d="M 226,32 226,28 228,28 228,32 z" fill="#ffffff" fill-opacity="1.0" id="xffffff_r255_g255_b255_shape15"/>
    <path d="M 230,36 228,36 228,33 228,32 230,32 230,33 z" fill="#ffffff" fill-opacity="1.0" id="xffffff_r255_g255_b255_shape16"/>
    <path d="M 236,36 236,32 238,32 238,36 z" fill="#ffffff" fill-opacity="1.0" id="xffffff_r255_g255_b255_shape17"/>
    <path d="M 230,36 232,36 232,39 232,40 230,40 230,39 z" fill="#ffffff" fill-opacity="1.0" id="xffffff_r255_g255_b255_shape18"/>
    <path d="M 232,40 234,40 234,44 232,44 z" fill="#ffffff" fill-opacity="1.0" id="xffffff_r255_g255_b255_shape19"/>
    <path d="M 234,24 234,22 236,22 236,24 z" fill="#ffffff" fill-opacity="1.0" id="xffffff_r255_g255_b255_shape20"/>
    <path d="M 136,116 138,116 138,118 136,118 z" fill="#ffffff" fill-opacity="1.0" id="xffffff_r255_g255_b255_shape21"/>
    <path d="M 178,130 176,130 176,128 178,128 z" fill="#ffffff" fill-opacity="1.0" id="xffffff_r255_g255_b255_shape22"/>
    <path d="M 230,148 230,146 232,146 232,148 z" fill="#ffffff" fill-opacity="1.0" id="xffffff_r255_g255_b255_shape23"/>
    <path d="M 92,164 92,162 94,162 94,164 z" fill="#ffffff" fill-opacity="1.0" id="xffffff_r255_g255_b255_shape24"/>
    <path d="M 2,176 2,178 0,178 0,176 z" fill="#ffffff" fill-opacity="1.0" id="xffffff_r255_g255_b255_shape25"/>
    <path d="M 0,182 2,182 2,184 0,184 z" fill="#ffffff" fill-opacity="1.0" id="xffffff_r255_g255_b255_shape26"/>
    <path d="M 80,186 80,188 78,188 78,186 z" fill="#ffffff" fill-opacity="1.0" id="xffffff_r255_g255_b255_shape27"/>
    <path d="M 164,246 162,246 162,244 164,244 z" fill="#ffffff" fill-opacity="1.0" id="xffffff_r255_g255_b255_shape28"/>
    <path d="M 166,248 164,248 164,246 166,246 z" fill="#ffffff" fill-opacity="1.0" id="xffffff_r255_g255_b255_shape29"/>
  </g>
  <g id="x000000_r0_g0_b0">
    <path d="M 116,130 114,130 114,132 138,132 138,136 126,136 126,138 122,138 122,140 120,140 120,142 122,142 122,144 124,144 124,142 132,142 132,140 142,140 142,142 140,142 140,144 136,144 136,146 134,146 130,146 130,148 126,148 126,150 124,150 124,152 124,154 132,154 132,152 138,152 138,150 142,150 142,148 146,148 146,146 148,146 148,144 150,144 150,142 152,142 152,140 154,140 154,138 156,138 156,136 160,136 160,140 158,140 158,144 156,144 156,146 152,146 152,148 150,148 150,150 146,150 146,152 142,152 142,154 136,154 136,156 134,156 134,158 136,158 136,170 134,170 134,174 136,174 136,176 134,176 134,178 136,178 136,180 134,180 134,182 132,182 132,194 130,194 130,196 128,196 128,197 128,204 126,204 126,208 124,208 124,214 122,214 122,220 118,220 118,224 116,224 116,226 115,226 114,226 114,230 112,230 110,230 110,232 108,232 108,228 110,228 110,226 112,226 112,224 114,224 114,220 116,220 116,216 118,216 118,212 120,212 120,208 122,208 122,202 124,202 124,198 126,198 126,192 128,192 128,181 128,178 130,178 130,173 130,170 132,170 132,166 132,156 128,156 128,158 126,158 126,156 122,156 122,154 120,154 120,149 120,148 122,148 122,146 114,146 114,144 116,144 116,142 114,142 114,140 116,140 116,138 118,138 118,136 114,136 114,134 112,134 112,132 110,132 110,130 112,130 112,128 114,128 114,126 116,126 116,124 122,124 122,122 130,122 130,121 130,120 132,120 132,119 132,114 130,114 130,112 130,108 128,108 128,99 128,98 126,98 126,96 126,94 124,94 124,92 122,92 122,90 118,90 118,88 116,88 116,86 110,86 110,84 98,84 92,84 92,86 86,86 86,90 88,90 88,98 90,98 90,108 92,108 92,114 94,114 94,120 96,120 96,126 98,126 98,130 92,130 92,128 90,128 90,124 86,124 86,120 84,120 84,116 82,116 82,108 80,108 80,102 78,102 78,100 76,100 76,98 74,98 74,96 70,96 70,100 68,100 68,104 66,104 66,108 64,108 64,112 62,112 62,118 60,118 60,122 58,122 58,128 56,128 56,134 54,134 54,140 52,140 52,150 50,150 50,158 48,158 48,163 48,194 50,194 50,202 52,202 52,214 54,214 54,220 56,220 56,224 58,224 58,226 60,226 60,228 62,228 62,230 64,230 64,232 68,232 68,228 70,228 70,222 72,222 72,218 74,218 74,186 71,186 68,186 68,184 66,184 66,182 64,182 64,181 64,176 66,176 66,178 72,178 72,180 74,180 74,182 80,182 80,184 82,184 82,182 88,182 88,184 90,184 90,188 86,188 86,190 84,190 84,192 82,192 82,198 80,198 80,200 82,200 82,218 80,218 80,228 78,228 78,230 80,230 80,240 82,240 82,244 80,244 80,242 74,242 74,234 76,234 76,224 74,224 74,230 72,230 72,236 70,236 70,238 66,238 66,236 56,236 56,234 50,234 50,232 58,232 58,230 56,230 56,228 54,228 54,226 52,226 52,220 50,220 50,214 48,214 48,204 46,204 46,196 44,196 44,185 44,176 42,176 42,172 44,172 44,160 46,160 46,158 44,158 44,156 46,156 46,151 46,148 48,148 48,147 48,140 50,140 50,132 52,132 52,126 54,126 54,120 56,120 56,118 58,118 58,112 60,112 60,106 62,106 62,104 64,104 64,98 68,98 68,92 64,92 64,90 58,90 58,88 52,88 52,86 46,86 46,84 44,84 44,82 46,82 46,70 52,70 52,68 56,68 58,68 58,66 60,66 64,66 64,64 68,64 74,64 74,66 78,66 78,68 82,68 82,70 74,70 74,68 62,68 62,70 56,70 56,71 56,72 52,72 52,75 52,76 58,76 58,78 64,78 64,80 69,80 70,80 70,82 62,82 62,80 56,80 56,78 50,78 50,83 50,84 54,84 54,86 62,86 62,88 68,88 68,90 76,90 76,92 82,92 82,90 80,90 80,86 82,86 82,84 84,84 84,82 88,82 88,80 98,80 98,78 102,78 102,80 110,80 110,78 114,78 114,80 116,80 116,82 118,82 118,84 122,84 122,86 124,86 124,88 126,88 126,90 128,90 128,94 130,94 130,96 132,96 132,100 134,100 134,106 136,106 136,108 134,108 134,110 136,110 136,112 138,112 138,98 139,98 140,98 140,96 143,96 148,96 148,98 150,98 150,106 152,106 152,113 152,114 154,114 154,115 154,116 160,116 160,114 170,114 170,112 174,112 174,110 178,110 178,104 180,104 180,100 182,100 182,96 184,96 184,92 186,92 186,90 188,90 188,86 190,86 190,84 192,84 192,82 194,82 194,80 196,80 196,82 200,82 200,86 204,86 204,82 206,82 206,80 212,80 212,84 214,84 214,86 216,86 216,82 218,82 218,74 220,74 220,70 222,70 222,62 224,62 224,58 226,58 226,56 228,56 228,64 226,64 226,70 224,70 224,76 226,76 226,80 228,80 228,82 230,82 230,86 232,86 232,82 234,82 234,76 240,76 240,88 242,88 242,92 238,92 238,88 234,88 234,92 230,92 230,90 228,90 228,86 226,86 226,82 224,82 224,80 222,80 222,86 220,86 220,88 218,88 218,90 214,90 214,88 212,88 212,86 206,86 206,90 204,90 204,92 198,92 198,88 196,88 196,86 194,86 194,92 190,92 190,96 200,96 200,98 202,98 202,96 204,96 204,94 206,94 206,92 210,92 210,96 212,96 212,98 206,98 206,102 202,102 202,104 196,104 196,106 194,106 194,108 188,108 188,110 184,110 184,112 178,112 178,114 172,114 172,116 166,116 166,118 154,118 154,120 150,120 150,118 148,118 148,106 146,106 146,102 144,102 144,98 142,98 142,124 128,124 128,126 120,126 120,128 116,128 z M 190,104 190,96 188,96 188,98 186,98 186,102 184,102 184,106 188,106 188,104 z M 80,188 80,186 78,186 78,188 z M 136,118 138,118 138,116 136,116 z" fill="#000000" fill-opacity="1.0" id="x000000_r0_g0_b0_shape1"/>
    <path d="M 250,118 252,118 252,124 254,124 254,126 256,126 256,134 258,134 258,140 260,140 260,148 262,148 262,159 262,160 264,160 264,161 264,182 256,182 256,178 254,178 254,176 252,176 252,174 250,174 250,168 248,168 248,166 246,166 246,164 244,164 244,161 244,160 242,160 242,161 242,176 240,176 240,186 238,186 238,190 232,190 232,192 234,192 234,194 232,194 232,206 230,206 230,204 228,204 228,202 230,202 230,187 230,184 228,184 228,182 227,182 226,182 226,180 225,180 224,180 224,182 224,184 224,206 220,206 220,204 218,204 218,206 216,206 216,210 214,210 214,208 212,208 212,206 212,204 210,204 210,205 210,206 208,206 208,207 208,208 206,208 206,210 204,210 204,212 200,212 200,214 198,214 198,216 194,216 194,218 192,218 192,220 188,220 188,222 186,222 186,224 182,224 182,226 178,226 178,228 172,228 172,226 170,226 170,219 170,218 172,218 172,217 172,214 176,214 176,210 180,210 180,208 182,208 182,206 184,206 184,204 188,204 188,202 190,202 190,198 194,198 194,194 198,194 198,180 198,176 196,176 196,170 194,170 194,160 192,160 192,156 194,156 194,154 190,154 190,156 188,156 188,160 186,160 186,164 184,164 184,168 182,168 182,170 180,170 180,171 180,174 178,174 178,176 176,176 176,178 174,178 174,180 170,180 170,165 170,154 172,154 172,152 172,146 174,146 174,138 176,138 176,130 168,130 168,132 162,132 162,134 158,134 158,132 160,132 160,130 164,130 164,128 170,128 170,126 178,126 178,124 184,124 184,122 188,122 188,120 190,120 190,118 194,118 194,116 198,116 198,114 200,114 200,112 202,112 202,110 206,110 206,108 210,108 210,104 212,104 212,100 218,100 218,104 216,104 216,106 214,106 214,110 210,110 210,112 208,112 208,114 204,114 204,116 202,116 202,118 200,118 200,120 194,120 194,122 192,122 192,124 190,124 190,126 182,126 182,132 180,132 180,140 178,140 178,148 176,148 176,164 174,164 174,172 176,172 176,170 178,170 178,166 180,166 180,162 182,162 182,158 184,158 184,154 186,154 186,152 188,152 188,150 190,150 190,146 196,146 196,156 198,156 198,162 200,162 200,172 202,172 202,176 206,176 206,172 208,172 208,170 210,170 210,162 212,162 212,154 214,154 214,150 218,150 218,152 220,152 220,156 222,156 222,160 224,160 224,166 226,166 226,170 228,170 228,176 230,176 230,178 232,178 232,180 234,180 234,182 236,182 236,180 238,180 238,178 236,178 236,176 238,176 238,152 244,152 244,156 246,156 246,160 248,160 248,162 250,162 250,166 252,166 252,168 254,168 254,170 256,170 256,174 258,174 258,178 262,178 262,172 260,172 260,166 258,166 258,162 260,162 260,158 258,158 258,154 256,154 256,142 254,142 254,136 252,136 252,130 250,130 250,124 248,124 248,122 246,122 246,112 244,112 244,104 242,104 242,102 240,102 240,100 242,100 242,98 240,98 240,96 244,96 244,100 246,100 246,106 248,106 248,110 250,110 z M 208,176 208,178 206,178 206,186 208,186 208,198 206,198 206,188 204,188 204,182 200,182 200,190 200,200 196,200 196,202 194,202 194,204 190,204 190,208 186,208 186,210 184,210 184,214 178,214 178,218 176,218 176,220 174,220 174,222 172,222 172,224 178,224 178,222 181,222 182,222 182,220 184,220 184,218 188,218 188,217 188,216 190,216 190,214 194,214 194,211 194,210 200,210 200,206 204,206 204,204 206,204 206,202 208,202 208,200 210,200 210,194 212,194 212,204 214,204 214,202 220,202 220,200 222,200 222,184 222,168 220,168 220,162 218,162 218,160 216,160 216,164 214,164 214,170 212,170 212,174 210,174 210,176 z M 178,128 176,128 176,130 178,130 z" fill="#000000" fill-opacity="1.0" id="x000000_r0_g0_b0_shape2"/>
    <path d="M 240,52 240,56 238,56 238,58 234,58 234,52 232,52 232,54 228,54 228,44 226,44 226,40 224,40 224,46 220,46 220,36 218,36 218,28 216,28 216,24 214,24 214,20 218,20 218,22 220,22 220,20 226,20 226,22 228,22 228,20 232,20 232,16 234,16 234,12 232,12 232,10 228,10 228,6 230,6 230,8 234,8 234,10 236,10 236,12 240,12 240,14 242,14 242,18 244,18 244,20 246,20 246,22 248,22 248,24 250,24 250,26 252,26 252,30 256,30 256,32 258,32 258,36 262,36 262,42 264,42 264,44 262,44 262,46 260,46 260,44 258,44 258,40 256,40 256,36 252,36 252,40 254,40 254,44 256,44 256,46 254,46 254,48 252,48 252,46 250,46 250,42 248,42 248,36 246,36 246,32 244,32 244,36 242,36 242,38 244,38 244,44 246,44 246,52 z M 234,40 232,40 232,43 232,44 234,44 234,43 z M 228,28 226,28 226,29 226,32 228,32 228,36 230,36 230,32 228,32 228,29 z M 240,44 238,44 238,50 240,50 z M 238,32 236,32 236,26 235,26 234,26 234,32 236,32 236,36 238,36 z M 230,40 232,40 232,36 230,36 z M 234,24 236,24 236,22 234,22 z" fill="#000000" fill-opacity="1.0" id="x000000_r0_g0_b0_shape3"/>
    <path d="M 210,50 212,50 212,58 210,58 210,64 208,64 208,66 206,66 206,68 202,68 202,70 204,70 204,72 206,72 206,74 208,74 208,76 210,76 210,78 204,78 204,76 202,76 202,74 200,74 200,72 196,72 196,66 199,66 200,66 200,64 201,64 204,64 204,62 206,62 206,56 208,56 208,51 208,48 206,48 206,50 204,50 204,52 202,52 202,54 200,54 200,56 198,56 198,58 196,58 194,58 194,60 193,60 186,60 186,58 184,58 184,52 179,52 176,52 176,54 172,54 172,56 164,56 164,58 162,58 162,56 156,56 156,54 154,54 154,48 154,46 156,46 156,42 160,42 160,40 162,40 162,38 164,38 164,37 164,36 166,36 166,35 166,34 168,34 168,32 172,32 172,30 178,30 178,28 180,28 180,24 178,24 178,22 176,22 176,18 178,18 178,12 180,12 180,10 182,10 182,8 196,8 196,9 196,10 198,10 198,12 194,12 194,10 188,10 186,10 186,12 184,12 184,14 182,14 182,20 180,20 180,22 182,22 184,22 184,26 187,26 188,26 188,30 184,30 182,30 182,32 180,32 174,32 174,34 172,34 172,36 170,36 170,38 168,38 168,40 166,40 166,42 162,42 162,46 160,46 160,54 168,54 168,52 172,52 172,50 174,50 174,48 178,48 178,46 182,46 182,44 184,44 184,42 186,42 186,40 190,40 190,46 188,46 188,48 186,48 186,50 188,50 188,56 192,56 192,54 198,54 198,52 200,52 200,50 202,50 202,48 204,48 204,44 206,44 206,42 210,42 z" fill="#000000" fill-opacity="1.0" id="x000000_r0_g0_b0_shape4"/>
    <path d="M 28,104 26,104 26,106 25,106 24,106 24,108 23,108 22,108 22,114 20,114 20,118 18,118 18,126 16,126 16,130 15,130 14,130 14,135 14,138 12,138 12,140 10,140 10,142 12,142 12,144 14,144 14,146 15,146 18,146 18,148 19,148 26,148 26,150 28,150 28,152 26,152 26,154 14,154 14,152 8,152 8,154 6,154 6,158 6,166 4,166 4,180 4,184 2,184 2,182 0,182 0,180 0,178 2,178 2,176 0,176 0,174 2,174 2,156 2,152 4,152 4,148 10,148 10,146 6,146 6,138 8,138 8,137 8,134 10,134 10,130 12,130 12,124 13,124 14,124 14,116 14,114 18,114 18,108 20,108 20,106 22,106 22,104 24,104 24,98 26,98 26,96 28,96 28,94 26,94 26,93 26,92 28,92 28,91 28,90 30,90 30,87 30,86 32,86 32,84 32,82 36,82 36,80 43,80 44,80 44,82 43,82 40,82 40,84 38,84 38,86 36,86 36,90 34,90 34,92 33,92 32,92 32,96 30,96 30,98 28,98 z" fill="#000000" fill-opacity="1.0" id="x000000_r0_g0_b0_shape5"/>
    <path d="M 150,260 150,258 148,258 148,250 150,250 150,246 154,246 154,244 159,244 160,244 162,244 162,243 162,242 160,242 160,240 158,240 158,236 159,236 164,236 172,236 172,238 177,238 178,238 178,240 179,240 182,240 182,242 186,242 186,244 188,244 188,245 188,246 190,246 190,247 190,248 192,248 192,250 194,250 194,257 194,263 194,272 190,272 190,270 188,270 188,268 184,268 184,266 182,266 182,264 178,264 178,260 181,260 182,260 182,262 184,262 184,264 186,264 186,266 190,266 190,261 190,260 188,260 188,259 188,248 186,248 186,246 184,246 184,244 180,244 180,242 176,242 176,240 170,240 170,238 167,238 166,238 166,242 168,242 168,246 170,246 170,248 172,248 172,252 174,252 174,254 176,254 176,256 178,256 178,260 176,260 176,258 174,258 174,256 172,256 172,254 170,254 170,252 168,252 168,250 166,250 166,260 164,260 z M 152,256 150,256 150,258 162,258 162,248 158,248 158,246 156,246 156,248 154,248 154,252 152,252 z M 166,246 164,246 164,244 163,244 162,244 162,246 163,246 164,246 164,247 164,248 166,248 166,247 z" fill="#000000" fill-opacity="1.0" id="x000000_r0_g0_b0_shape6"/>
    <path d="M 144,222 146,222 146,220 148,220 148,218 150,218 150,216 156,216 156,218 158,218 158,220 160,220 160,224 162,224 162,228 164,228 164,230 162,230 162,232 158,232 158,234 152,234 148,234 148,240 150,240 150,246 148,246 148,248 120,248 120,244 118,244 118,240 120,240 120,238 122,238 122,234 124,234 124,232 126,232 126,228 128,228 128,226 130,226 130,224 132,224 132,220 144,220 z M 156,228 156,222 154,222 154,220 152,220 152,222 150,222 150,228 148,228 148,230 146,230 146,232 155,232 156,232 156,230 158,230 158,228 z M 122,242 122,244 124,244 124,246 144,246 144,232 142,232 142,226 140,226 140,224 136,224 136,226 132,226 132,228 130,228 130,232 128,232 128,236 126,236 126,238 124,238 124,242 z" fill="#000000" fill-opacity="1.0" id="x000000_r0_g0_b0_shape7"/>
    <path d="M 90,158 92,158 92,154 94,154 94,150 98,150 98,148 102,148 102,150 104,150 104,152 108,152 108,154 108,166 106,166 106,168 104,168 104,171 104,172 102,172 102,173 102,174 94,174 94,172 92,172 92,170 90,170 90,166 88,166 88,164 90,164 z M 94,166 92,166 92,170 96,170 96,168 94,168 z M 92,162 92,164 94,164 94,162 z" fill="#000000" fill-opacity="1.0" id="x000000_r0_g0_b0_shape8"/>
    <path d="M 212,26 210,26 210,28 208,28 208,30 204,30 204,32 194,32 194,30 199,30 200,30 200,28 201,28 204,28 204,26 206,26 206,24 208,24 208,20 206,20 206,18 205,18 204,18 204,16 203,16 198,16 198,18 200,18 200,20 194,20 194,22 192,22 192,25 192,26 194,26 194,28 194,30 190,30 190,29 190,26 188,26 188,23 188,22 190,22 190,21 190,18 192,18 192,16 194,16 194,14 198,14 198,12 200,12 200,8 201,8 204,8 204,6 206,6 206,4 209,4 210,4 210,6 208,6 208,8 206,8 206,10 204,10 204,12 202,12 202,14 206,14 206,16 210,16 210,18 212,18 212,21 z" fill="#000000" fill-opacity="1.0" id="x000000_r0_g0_b0_shape9"/>
    <path d="M 226,120 222,120 222,110 228,110 228,108 230,108 230,110 234,110 234,118 234,120 230,120 230,122 226,122 z" fill="#000000" fill-opacity="1.0" id="x000000_r0_g0_b0_shape10"/>
    <path d="M 204,140 200,140 200,138 198,138 198,136 196,136 196,130 198,130 198,128 200,128 200,126 206,126 206,128 208,128 208,132 208,136 206,136 206,138 204,138 z" fill="#000000" fill-opacity="1.0" id="x000000_r0_g0_b0_shape11"/>
    <path d="M 236,146 236,150 234,150 234,152 226,152 226,142 228,142 228,140 230,140 230,139 230,138 234,138 234,140 238,140 238,146 z M 230,148 232,148 232,146 230,146 z" fill="#000000" fill-opacity="1.0" id="x000000_r0_g0_b0_shape12"/>
    <path d="M 16,226 16,224 20,224 20,222 22,222 22,224 24,224 24,226 25,226 34,226 34,228 37,228 38,228 38,230 39,230 50,230 50,232 40,232 40,234 36,234 36,232 32,232 32,230 24,230 24,228 20,228 20,226 z" fill="#000000" fill-opacity="1.0" id="x000000_r0_g0_b0_shape13"/>
    <path d="M 248,230 248,228 252,228 252,230 254,230 254,228 256,228 256,220 258,220 258,222 260,222 260,224 262,224 262,230 260,230 260,232 250,232 250,230 z" fill="#000000" fill-opacity="1.0" id="x000000_r0_g0_b0_shape14"/>
    <path d="M 0,184 2,184 2,190 4,190 4,198 6,198 6,206 8,206 8,212 6,212 6,208 4,208 4,203 4,202 2,202 2,194 2,192 0,192 0,189 z" fill="#000000" fill-opacity="1.0" id="x000000_r0_g0_b0_shape15"/>
    <path d="M 98,238 98,236 101,236 102,236 102,234 103,234 104,234 104,232 106,232 108,232 108,236 107,236 104,236 104,238 102,238 102,240 98,240 98,241 98,242 96,242 96,241 96,240 94,240 94,238 z" fill="#000000" fill-opacity="1.0" id="x000000_r0_g0_b0_shape16"/>
    <path d="M 228,2 228,6 224,6 224,4 210,4 210,2 z" fill="#000000" fill-opacity="1.0" id="x000000_r0_g0_b0_shape17"/>
    <path d="M 246,210 246,212 250,212 250,214 252,214 252,216 256,216 256,220 254,220 254,218 250,218 250,216 248,216 248,214 244,214 244,212 242,212 242,210 z" fill="#000000" fill-opacity="1.0" id="x000000_r0_g0_b0_shape18"/>
    <path d="M 106,74 106,76 110,76 110,78 104,78 104,76 92,76 92,74 z" fill="#000000" fill-opacity="1.0" id="x000000_r0_g0_b0_shape19"/>
    <path d="M 88,70 88,72 92,72 92,74 84,74 84,72 82,72 82,70 83,70 z" fill="#000000" fill-opacity="1.0" id="x000000_r0_g0_b0_shape20"/>
    <path d="M 236,208 232,208 232,206 234,206 234,204 235,204 236,204 236,206 237,206 238,206 238,208 240,208 240,210 236,210 236,209 z" fill="#000000" fill-opacity="1.0" id="x000000_r0_g0_b0_shape21"/>
    <path d="M 196,26 196,22 198,22 198,24 204,24 204,26 z" fill="#000000" fill-opacity="1.0" id="x000000_r0_g0_b0_shape22"/>
    <path d="M 12,220 10,220 10,218 8,218 8,212 10,212 10,216 12,216 12,217 z" fill="#000000" fill-opacity="1.0" id="x000000_r0_g0_b0_shape23"/>
    <path d="M 84,242 84,240 94,240 94,242 z" fill="#000000" fill-opacity="1.0" id="x000000_r0_g0_b0_shape24"/>
    <path d="M 216,211 216,210 220,210 220,212 222,212 222,214 219,214 218,214 218,212 217,212 216,212 z" fill="#000000" fill-opacity="1.0" id="x000000_r0_g0_b0_shape25"/>
    <path d="M 238,220 238,222 240,222 240,224 236,224 236,222 234,222 234,220 z" fill="#000000" fill-opacity="1.0" id="x000000_r0_g0_b0_shape26"/>
    <path d="M 184,20 184,18 186,18 186,16 188,16 188,19 188,20 z" fill="#000000" fill-opacity="1.0" id="x000000_r0_g0_b0_shape27"/>
    <path d="M 76,86 76,84 80,84 80,86 z" fill="#000000" fill-opacity="1.0" id="x000000_r0_g0_b0_shape28"/>
    <path d="M 226,218 226,216 229,216 230,216 230,218 229,218 z" fill="#000000" fill-opacity="1.0" id="x000000_r0_g0_b0_shape29"/>
    <path d="M 234,218 234,220 230,220 230,218 z" fill="#000000" fill-opacity="1.0" id="x000000_r0_g0_b0_shape30"/>
    <path d="M 240,224 244,224 244,226 240,226 z" fill="#000000" fill-opacity="1.0" id="x000000_r0_g0_b0_shape31"/>
    <path d="M 76,84 74,84 74,82 76,82 z" fill="#000000" fill-opacity="1.0" id="x000000_r0_g0_b0_shape32"/>
    <path d="M 226,214 226,216 224,216 224,214 z" fill="#000000" fill-opacity="1.0" id="x000000_r0_g0_b0_shape33"/>
    <path d="M 14,222 12,222 12,220 14,220 z" fill="#000000" fill-opacity="1.0" id="x000000_r0_g0_b0_shape34"/>
    <path d="M 16,222 16,224 14,224 14,222 z" fill="#000000" fill-opacity="1.0" id="x000000_r0_g0_b0_shape35"/>
    <path d="M 244,226 246,226 246,228 244,228 z" fill="#000000" fill-opacity="1.0" id="x000000_r0_g0_b0_shape36"/>
  </g>
</svg>
